<svg width="28" height="21" viewBox="0 0 28 21" fill="none" xmlns="http://www.w3.org/2000/svg">
<rect y="0.5" width="28" height="20" rx="2" fill="white"/>
<mask id="mask0_1762_31439" style="mask-type:luminance" maskUnits="userSpaceOnUse" x="0" y="0" width="28" height="21">
<rect y="0.5" width="28" height="20" rx="2" fill="white"/>
</mask>
<g mask="url(#mask0_1762_31439)">
<path d="M28 20.5H0V19.167H28V20.5ZM28 17.833H0V16.5H28V17.833ZM28 15.167H0V13.833H28V15.167ZM28 12.5H0V11.167H28V12.5ZM28 9.83301H0V8.5H28V9.83301ZM28 7.16699H0V5.83301H28V7.16699ZM28 4.5H0V3.16699H28V4.5ZM28 1.83301H0V0.5H28V1.83301Z" fill="#D02F44"/>
<rect y="0.5" width="12" height="9.33333" fill="#46467F"/>
<g filter="url(#filter0_d_1762_31439)">
<path d="M2.00032 7.16638C2.36836 7.16656 2.66634 7.46529 2.66634 7.83337C2.66634 8.20146 2.36836 8.50019 2.00032 8.50037C1.63213 8.50037 1.33333 8.20156 1.33333 7.83337C1.33333 7.46518 1.63213 7.16638 2.00032 7.16638ZM4.66634 7.16638C5.03453 7.16638 5.33333 7.46518 5.33333 7.83337C5.33333 8.20156 5.03453 8.50037 4.66634 8.50037C4.2983 8.50019 4.00032 8.20146 4.00032 7.83337C4.00032 7.46529 4.2983 7.16656 4.66634 7.16638ZM7.33333 7.16638C7.70152 7.16638 8.00032 7.46518 8.00032 7.83337C8.00032 8.20156 7.70152 8.50037 7.33333 8.50037C6.96514 8.50037 6.66634 8.20156 6.66634 7.83337C6.66634 7.46518 6.96514 7.16638 7.33333 7.16638ZM10.0003 7.16638C10.3684 7.16656 10.6663 7.46529 10.6663 7.83337C10.6663 8.20146 10.3684 8.50019 10.0003 8.50037C9.63213 8.50037 9.33333 8.20156 9.33333 7.83337C9.33333 7.46518 9.63213 7.16638 10.0003 7.16638ZM3.33333 5.83337C3.70152 5.83337 4.00032 6.13218 4.00032 6.50037C4.00014 6.86841 3.70141 7.16638 3.33333 7.16638C2.96525 7.16638 2.66651 6.86841 2.66634 6.50037C2.66634 6.13218 2.96514 5.83337 3.33333 5.83337ZM6.00032 5.83337C6.36836 5.83355 6.66634 6.13228 6.66634 6.50037C6.66616 6.8683 6.36825 7.16621 6.00032 7.16638C5.63224 7.16638 5.3335 6.86841 5.33333 6.50037C5.33333 6.13218 5.63213 5.83337 6.00032 5.83337ZM8.66634 5.83337C9.03453 5.83337 9.33333 6.13218 9.33333 6.50037C9.33315 6.86841 9.03442 7.16638 8.66634 7.16638C8.2984 7.16621 8.0005 6.8683 8.00032 6.50037C8.00032 6.13228 8.2983 5.83355 8.66634 5.83337ZM2.00032 4.50037C2.36825 4.50054 2.66616 4.79845 2.66634 5.16638C2.66634 5.53446 2.36836 5.8332 2.00032 5.83337C1.63213 5.83337 1.33333 5.53457 1.33333 5.16638C1.3335 4.79834 1.63224 4.50037 2.00032 4.50037ZM4.66634 4.50037C5.03442 4.50037 5.33315 4.79834 5.33333 5.16638C5.33333 5.53457 5.03453 5.83337 4.66634 5.83337C4.2983 5.8332 4.00032 5.53446 4.00032 5.16638C4.0005 4.79845 4.2984 4.50054 4.66634 4.50037ZM7.33333 4.50037C7.70141 4.50037 8.00014 4.79834 8.00032 5.16638C8.00032 5.53457 7.70152 5.83337 7.33333 5.83337C6.96514 5.83337 6.66634 5.53457 6.66634 5.16638C6.66651 4.79834 6.96525 4.50037 7.33333 4.50037ZM10.0003 4.50037C10.3683 4.50054 10.6662 4.79845 10.6663 5.16638C10.6663 5.53446 10.3684 5.8332 10.0003 5.83337C9.63213 5.83337 9.33333 5.53457 9.33333 5.16638C9.3335 4.79834 9.63224 4.50037 10.0003 4.50037ZM3.33333 3.16638C3.70152 3.16638 4.00032 3.46518 4.00032 3.83337C4.00032 4.20156 3.70152 4.50037 3.33333 4.50037C2.96514 4.50037 2.66634 4.20156 2.66634 3.83337C2.66634 3.46518 2.96514 3.16638 3.33333 3.16638ZM6.00032 3.16638C6.36836 3.16656 6.66634 3.46529 6.66634 3.83337C6.66634 4.20146 6.36836 4.50019 6.00032 4.50037C5.63213 4.50037 5.33333 4.20156 5.33333 3.83337C5.33333 3.46518 5.63213 3.16638 6.00032 3.16638ZM8.66634 3.16638C9.03453 3.16638 9.33333 3.46518 9.33333 3.83337C9.33333 4.20156 9.03453 4.50037 8.66634 4.50037C8.2983 4.50019 8.00032 4.20146 8.00032 3.83337C8.00032 3.46529 8.2983 3.16656 8.66634 3.16638ZM2.00032 1.83337C2.36836 1.83355 2.66634 2.13228 2.66634 2.50037C2.66616 2.8683 2.36825 3.16621 2.00032 3.16638C1.63224 3.16638 1.3335 2.86841 1.33333 2.50037C1.33333 2.13218 1.63213 1.83337 2.00032 1.83337ZM4.66634 1.83337C5.03453 1.83337 5.33333 2.13218 5.33333 2.50037C5.33315 2.86841 5.03442 3.16638 4.66634 3.16638C4.2984 3.16621 4.0005 2.8683 4.00032 2.50037C4.00032 2.13228 4.2983 1.83355 4.66634 1.83337ZM7.33333 1.83337C7.70152 1.83337 8.00032 2.13218 8.00032 2.50037C8.00014 2.86841 7.70141 3.16638 7.33333 3.16638C6.96525 3.16638 6.66651 2.86841 6.66634 2.50037C6.66634 2.13218 6.96514 1.83337 7.33333 1.83337ZM10.0003 1.83337C10.3684 1.83355 10.6663 2.13228 10.6663 2.50037C10.6662 2.8683 10.3683 3.16621 10.0003 3.16638C9.63224 3.16638 9.3335 2.86841 9.33333 2.50037C9.33333 2.13218 9.63213 1.83337 10.0003 1.83337Z" fill="url(#paint0_linear_1762_31439)"/>
</g>
</g>
<defs>
<filter id="filter0_d_1762_31439" x="1.33333" y="1.83337" width="9.33301" height="7.66699" filterUnits="userSpaceOnUse" color-interpolation-filters="sRGB">
<feFlood flood-opacity="0" result="BackgroundImageFix"/>
<feColorMatrix in="SourceAlpha" type="matrix" values="0 0 0 0 0 0 0 0 0 0 0 0 0 0 0 0 0 0 127 0" result="hardAlpha"/>
<feOffset dy="1"/>
<feColorMatrix type="matrix" values="0 0 0 0 0 0 0 0 0 0 0 0 0 0 0 0 0 0 0.06 0"/>
<feBlend mode="normal" in2="BackgroundImageFix" result="effect1_dropShadow_1762_31439"/>
<feBlend mode="normal" in="SourceGraphic" in2="effect1_dropShadow_1762_31439" result="shape"/>
</filter>
<linearGradient id="paint0_linear_1762_31439" x1="1.33333" y1="1.83337" x2="1.33333" y2="8.50037" gradientUnits="userSpaceOnUse">
<stop stop-color="white"/>
<stop offset="1" stop-color="#F0F0F0"/>
</linearGradient>
</defs>
</svg>
